# xmcd
#
# Track frame offsets: 
#        150
#        12310
#        21828
#        33713
#        44420
#        56253
#        70370
#        87433
#        99198
#        122480
#        144063
#        171943
#        183495
#        229540
#        268403
#        280080
#        304510
#        311000
#        331663
#
# Disc length: 4716 seconds
#
# Revision: 6
# Processed by: cddbd v1.5.2PL0 Copyright (c) Steve Scherf et al.
# Submitted via: ExactAudioCopyFreeDBPlugin 1.0
#
DISCID=fd126a13
DTITLE=B.B. King - Gold
DYEAR=2006
DGENRE=Blues
TTITLE0=How Blue Can You Get?
TTITLE1=Sneakin' Around
TTITLE2=Help the Poor
TTITLE3=Stop Leadin' Me On
TTITLE4=Never Trust a Woman
TTITLE5=Every Day I Have the Blues (Live at the Regal)
TTITLE6=Sweet Little Angel (Live at the Regal)
TTITLE7=All Over Again
TTITLE8=Don't Answer the Door
TTITLE9=Gambler's Blues
TTITLE10=Sweet Sixteen, Parts One and Two
TTITLE11=Paying the Cost to Be the Boss
TTITLE12=Lucille
TTITLE13=Why I Sing the Blues
TTITLE14=Please Accept My Love
TTITLE15=The Thrill Is Gone
TTITLE16=Nobody Loves Me but My Mother
TTITLE17=Hummingbird
TTITLE18=Chains and Things
EXTD=YEAR: 2000
EXTT0=YEAR: 1963
EXTT1=YEAR: 1962
EXTT2=YEAR: 1964
EXTT3=YEAR: 1964
EXTT4=YEAR: 1964
EXTT5=YEAR: 1964
EXTT6=YEAR: 1964
EXTT7=YEAR: 1965
EXTT8=YEAR: 1966
EXTT9=YEAR: 1966
EXTT10=YEAR: 1966
EXTT11=YEAR: 1967
EXTT12=YEAR: 1967
EXTT13=YEAR: 1969
EXTT14=YEAR: 1969
EXTT15=YEAR: 1969
EXTT16=YEAR: 1970
EXTT17=YEAR: 1970
EXTT18=YEAR: 1970
PLAYORDER=
